# Wavefront OBJ file automatically generated by Tiled2Unity

# Vertices (Count = 256)
v -224 -16 0
v -240 -16 0
v -240 0 0
v -224 0 0
v -208 -16 0
v -208 0 0
v -192 -16 0
v -192 0 0
v -176 -16 0
v -176 0 0
v -160 -16 0
v -160 0 0
v -144 -16 0
v -144 0 0
v -128 -16 0
v -128 0 0
v -112 -16 0
v -112 0 0
v -96 -16 0
v -96 0 0
v -80 -16 0
v -80 0 0
v -64 -16 0
v -64 0 0
v -48 -16 0
v -48 0 0
v -32 -16 0
v -32 0 0
v -16 -16 0
v -16 0 0
v 0 -16 0
v 0 0 0
v -224 -32 0
v -240 -32 0
v -208 -32 0
v -192 -32 0
v -176 -32 0
v -160 -32 0
v -144 -32 0
v -128 -32 0
v -112 -32 0
v -96 -32 0
v -80 -32 0
v -64 -32 0
v -48 -32 0
v -32 -32 0
v -16 -32 0
v 0 -32 0
v -224 -48 0
v -240 -48 0
v -208 -48 0
v -192 -48 0
v -176 -48 0
v -160 -48 0
v -144 -48 0
v -128 -48 0
v -112 -48 0
v -96 -48 0
v -80 -48 0
v -64 -48 0
v -48 -48 0
v -32 -48 0
v -16 -48 0
v 0 -48 0
v -224 -64 0
v -240 -64 0
v -208 -64 0
v -192 -64 0
v -176 -64 0
v -160 -64 0
v -144 -64 0
v -128 -64 0
v -112 -64 0
v -96 -64 0
v -80 -64 0
v -64 -64 0
v -48 -64 0
v -32 -64 0
v -16 -64 0
v 0 -64 0
v -224 -80 0
v -240 -80 0
v -208 -80 0
v -192 -80 0
v -176 -80 0
v -160 -80 0
v -144 -80 0
v -128 -80 0
v -112 -80 0
v -96 -80 0
v -80 -80 0
v -64 -80 0
v -48 -80 0
v -32 -80 0
v -16 -80 0
v 0 -80 0
v -224 -96 0
v -240 -96 0
v -208 -96 0
v -192 -96 0
v -176 -96 0
v -160 -96 0
v -144 -96 0
v -128 -96 0
v -112 -96 0
v -96 -96 0
v -80 -96 0
v -64 -96 0
v -48 -96 0
v -32 -96 0
v -16 -96 0
v 0 -96 0
v -224 -112 0
v -240 -112 0
v -208 -112 0
v -192 -112 0
v -176 -112 0
v -160 -112 0
v -144 -112 0
v -128 -112 0
v -112 -112 0
v -96 -112 0
v -80 -112 0
v -64 -112 0
v -48 -112 0
v -32 -112 0
v -16 -112 0
v 0 -112 0
v -224 -128 0
v -240 -128 0
v -208 -128 0
v -192 -128 0
v -176 -128 0
v -160 -128 0
v -144 -128 0
v -128 -128 0
v -112 -128 0
v -96 -128 0
v -80 -128 0
v -64 -128 0
v -48 -128 0
v -32 -128 0
v -16 -128 0
v 0 -128 0
v -224 -144 0
v -240 -144 0
v -208 -144 0
v -192 -144 0
v -176 -144 0
v -160 -144 0
v -144 -144 0
v -128 -144 0
v -112 -144 0
v -96 -144 0
v -80 -144 0
v -64 -144 0
v -48 -144 0
v -32 -144 0
v -16 -144 0
v 0 -144 0
v -224 -160 0
v -240 -160 0
v -208 -160 0
v -192 -160 0
v -176 -160 0
v -160 -160 0
v -144 -160 0
v -128 -160 0
v -112 -160 0
v -96 -160 0
v -80 -160 0
v -64 -160 0
v -48 -160 0
v -32 -160 0
v -16 -160 0
v 0 -160 0
v -224 -176 0
v -240 -176 0
v -208 -176 0
v -192 -176 0
v -176 -176 0
v -160 -176 0
v -144 -176 0
v -128 -176 0
v -112 -176 0
v -96 -176 0
v -80 -176 0
v -64 -176 0
v -48 -176 0
v -32 -176 0
v -16 -176 0
v 0 -176 0
v -224 -192 0
v -240 -192 0
v -208 -192 0
v -192 -192 0
v -176 -192 0
v -160 -192 0
v -144 -192 0
v -128 -192 0
v -112 -192 0
v -96 -192 0
v -80 -192 0
v -64 -192 0
v -48 -192 0
v -32 -192 0
v -16 -192 0
v 0 -192 0
v -224 -208 0
v -240 -208 0
v -208 -208 0
v -192 -208 0
v -176 -208 0
v -160 -208 0
v -144 -208 0
v -128 -208 0
v -112 -208 0
v -96 -208 0
v -80 -208 0
v -64 -208 0
v -48 -208 0
v -32 -208 0
v -16 -208 0
v 0 -208 0
v -224 -224 0
v -240 -224 0
v -208 -224 0
v -192 -224 0
v -176 -224 0
v -160 -224 0
v -144 -224 0
v -128 -224 0
v -112 -224 0
v -96 -224 0
v -80 -224 0
v -64 -224 0
v -48 -224 0
v -32 -224 0
v -16 -224 0
v 0 -224 0
v -224 -240 0
v -240 -240 0
v -208 -240 0
v -192 -240 0
v -176 -240 0
v -160 -240 0
v -144 -240 0
v -128 -240 0
v -112 -240 0
v -96 -240 0
v -80 -240 0
v -64 -240 0
v -48 -240 0
v -32 -240 0
v -16 -240 0
v 0 -240 0

# Texture cooridinates (Count = 96)
vt 0.2986758 0.5818712
vt 0.3149606 0.5818712
vt 0.3149606 0.6120452
vt 0.2986758 0.6120452
vt 0.2459898 0.5818712
vt 0.2622746 0.5818712
vt 0.2622746 0.6120452
vt 0.2459898 0.6120452
vt 0.2811138 0.5818712
vt 0.2973986 0.5818712
vt 0.2973986 0.6120452
vt 0.2811138 0.6120452
vt 0.2635518 0.5495517
vt 0.2798366 0.5495517
vt 0.2798366 0.5797259
vt 0.2635518 0.5797259
vt 0.3162378 0.4849129
vt 0.3325226 0.4849129
vt 0.3325226 0.5150871
vt 0.3162378 0.5150871
vt 0.1406179 0.8727456
vt 0.1569027 0.8727456
vt 0.1569027 0.9029198
vt 0.1406179 0.9029198
vt 0.2284279 0.5172323
vt 0.2447126 0.5172323
vt 0.2447126 0.5474064
vt 0.2284279 0.5474064
vt 0.2108659 0.743468
vt 0.2271507 0.743468
vt 0.2271507 0.7736422
vt 0.2108659 0.7736422
vt 0.1933039 0.743468
vt 0.2095887 0.743468
vt 0.2095887 0.7736422
vt 0.1933039 0.7736422
vt 0.1757419 0.743468
vt 0.1920267 0.743468
vt 0.1920267 0.7736422
vt 0.1757419 0.7736422
vt 0.2108659 0.7111487
vt 0.2271507 0.7111487
vt 0.2271507 0.7413228
vt 0.2108659 0.7413228
vt 0.1933039 0.7111487
vt 0.2095887 0.7111487
vt 0.2095887 0.7413228
vt 0.1933039 0.7413228
vt 0.1757419 0.7111487
vt 0.1920267 0.7111487
vt 0.1920267 0.7413228
vt 0.1757419 0.7413228
vt 0.2108659 0.6788293
vt 0.2271507 0.6788293
vt 0.2271507 0.7090034
vt 0.2108659 0.7090034
vt 0.1933039 0.6788293
vt 0.2095887 0.6788293
vt 0.2095887 0.7090034
vt 0.1933039 0.7090034
vt 0.1757419 0.6788293
vt 0.1920267 0.6788293
vt 0.1920267 0.7090034
vt 0.1757419 0.7090034
vt 0.2284279 0.7757875
vt 0.2447126 0.7757875
vt 0.2447126 0.8059616
vt 0.2284279 0.8059616
vt 0.1757419 0.8081068
vt 0.1920267 0.8081068
vt 0.1920267 0.838281
vt 0.1757419 0.838281
vt 0.2108659 0.7757875
vt 0.2271507 0.7757875
vt 0.2271507 0.8059616
vt 0.2108659 0.8059616
vt 0.3864857 0.8727456
vt 0.4027705 0.8727456
vt 0.4027705 0.9029198
vt 0.3864857 0.9029198
vt 0.3513618 0.7757875
vt 0.3676465 0.7757875
vt 0.3676465 0.8059616
vt 0.3513618 0.8059616
vt 0.3689237 0.7757875
vt 0.3852085 0.7757875
vt 0.3852085 0.8059616
vt 0.3689237 0.8059616
vt 0.3337997 0.7757875
vt 0.3500845 0.7757875
vt 0.3500845 0.8059616
vt 0.3337997 0.8059616
vt 0.3689237 0.8727456
vt 0.3852085 0.8727456
vt 0.3852085 0.9029198
vt 0.3689237 0.9029198

# Normal
vn 0 0 -1

# Groups (Count = 2)

g mesh_0001
f 1/1/1 2/2/1 3/3/1 4/4/1
f 5/5/1 1/6/1 4/7/1 6/8/1
f 7/5/1 5/6/1 6/7/1 8/8/1
f 9/5/1 7/6/1 8/7/1 10/8/1
f 11/5/1 9/6/1 10/7/1 12/8/1
f 13/5/1 11/6/1 12/7/1 14/8/1
f 15/5/1 13/6/1 14/7/1 16/8/1
f 17/5/1 15/6/1 16/7/1 18/8/1
f 19/5/1 17/6/1 18/7/1 20/8/1
f 21/5/1 19/6/1 20/7/1 22/8/1
f 23/5/1 21/6/1 22/7/1 24/8/1
f 25/5/1 23/6/1 24/7/1 26/8/1
f 27/5/1 25/6/1 26/7/1 28/8/1
f 29/5/1 27/6/1 28/7/1 30/8/1
f 31/9/1 29/10/1 30/11/1 32/12/1
f 33/13/1 34/14/1 2/15/1 1/16/1
f 35/17/1 33/18/1 1/19/1 5/20/1
f 36/17/1 35/18/1 5/19/1 7/20/1
f 37/17/1 36/18/1 7/19/1 9/20/1
f 38/17/1 37/18/1 9/19/1 11/20/1
f 39/17/1 38/18/1 11/19/1 13/20/1
f 40/17/1 39/18/1 13/19/1 15/20/1
f 41/17/1 40/18/1 15/19/1 17/20/1
f 42/17/1 41/18/1 17/19/1 19/20/1
f 43/17/1 42/18/1 19/19/1 21/20/1
f 44/17/1 43/18/1 21/19/1 23/20/1
f 45/17/1 44/18/1 23/19/1 25/20/1
f 46/17/1 45/18/1 25/19/1 27/20/1
f 47/17/1 46/18/1 27/19/1 29/20/1
f 48/13/1 47/14/1 29/15/1 31/16/1
f 49/13/1 50/14/1 34/15/1 33/16/1
f 51/17/1 49/18/1 33/19/1 35/20/1
f 52/17/1 51/18/1 35/19/1 36/20/1
f 53/17/1 52/18/1 36/19/1 37/20/1
f 54/17/1 53/18/1 37/19/1 38/20/1
f 55/17/1 54/18/1 38/19/1 39/20/1
f 56/17/1 55/18/1 39/19/1 40/20/1
f 57/17/1 56/18/1 40/19/1 41/20/1
f 58/17/1 57/18/1 41/19/1 42/20/1
f 59/17/1 58/18/1 42/19/1 43/20/1
f 60/17/1 59/18/1 43/19/1 44/20/1
f 61/17/1 60/18/1 44/19/1 45/20/1
f 62/17/1 61/18/1 45/19/1 46/20/1
f 63/17/1 62/18/1 46/19/1 47/20/1
f 64/13/1 63/14/1 47/15/1 48/16/1
f 65/13/1 66/14/1 50/15/1 49/16/1
f 67/17/1 65/18/1 49/19/1 51/20/1
f 68/17/1 67/18/1 51/19/1 52/20/1
f 69/17/1 68/18/1 52/19/1 53/20/1
f 70/17/1 69/18/1 53/19/1 54/20/1
f 71/17/1 70/18/1 54/19/1 55/20/1
f 72/17/1 71/18/1 55/19/1 56/20/1
f 73/17/1 72/18/1 56/19/1 57/20/1
f 74/17/1 73/18/1 57/19/1 58/20/1
f 75/17/1 74/18/1 58/19/1 59/20/1
f 76/17/1 75/18/1 59/19/1 60/20/1
f 77/17/1 76/18/1 60/19/1 61/20/1
f 78/17/1 77/18/1 61/19/1 62/20/1
f 79/17/1 78/18/1 62/19/1 63/20/1
f 80/13/1 79/14/1 63/15/1 64/16/1
f 81/13/1 82/14/1 66/15/1 65/16/1
f 83/17/1 81/18/1 65/19/1 67/20/1
f 84/17/1 83/18/1 67/19/1 68/20/1
f 85/17/1 84/18/1 68/19/1 69/20/1
f 86/17/1 85/18/1 69/19/1 70/20/1
f 87/17/1 86/18/1 70/19/1 71/20/1
f 88/17/1 87/18/1 71/19/1 72/20/1
f 89/17/1 88/18/1 72/19/1 73/20/1
f 90/17/1 89/18/1 73/19/1 74/20/1
f 91/17/1 90/18/1 74/19/1 75/20/1
f 92/17/1 91/18/1 75/19/1 76/20/1
f 93/17/1 92/18/1 76/19/1 77/20/1
f 94/17/1 93/18/1 77/19/1 78/20/1
f 95/17/1 94/18/1 78/19/1 79/20/1
f 96/13/1 95/14/1 79/15/1 80/16/1
f 97/13/1 98/14/1 82/15/1 81/16/1
f 99/17/1 97/18/1 81/19/1 83/20/1
f 100/17/1 99/18/1 83/19/1 84/20/1
f 101/17/1 100/18/1 84/19/1 85/20/1
f 102/17/1 101/18/1 85/19/1 86/20/1
f 103/17/1 102/18/1 86/19/1 87/20/1
f 104/17/1 103/18/1 87/19/1 88/20/1
f 105/17/1 104/18/1 88/19/1 89/20/1
f 106/17/1 105/18/1 89/19/1 90/20/1
f 107/17/1 106/18/1 90/19/1 91/20/1
f 108/17/1 107/18/1 91/19/1 92/20/1
f 109/17/1 108/18/1 92/19/1 93/20/1
f 110/17/1 109/18/1 93/19/1 94/20/1
f 111/17/1 110/18/1 94/19/1 95/20/1
f 112/13/1 111/14/1 95/15/1 96/16/1
f 113/13/1 114/14/1 98/15/1 97/16/1
f 115/17/1 113/18/1 97/19/1 99/20/1
f 116/17/1 115/18/1 99/19/1 100/20/1
f 117/17/1 116/18/1 100/19/1 101/20/1
f 118/17/1 117/18/1 101/19/1 102/20/1
f 119/17/1 118/18/1 102/19/1 103/20/1
f 120/17/1 119/18/1 103/19/1 104/20/1
f 121/17/1 120/18/1 104/19/1 105/20/1
f 122/17/1 121/18/1 105/19/1 106/20/1
f 123/17/1 122/18/1 106/19/1 107/20/1
f 124/17/1 123/18/1 107/19/1 108/20/1
f 125/17/1 124/18/1 108/19/1 109/20/1
f 126/17/1 125/18/1 109/19/1 110/20/1
f 127/17/1 126/18/1 110/19/1 111/20/1
f 128/13/1 127/14/1 111/15/1 112/16/1
f 129/13/1 130/14/1 114/15/1 113/16/1
f 131/21/1 129/22/1 113/23/1 115/24/1
f 132/21/1 131/22/1 115/23/1 116/24/1
f 133/21/1 132/22/1 116/23/1 117/24/1
f 134/21/1 133/22/1 117/23/1 118/24/1
f 135/21/1 134/22/1 118/23/1 119/24/1
f 136/21/1 135/22/1 119/23/1 120/24/1
f 137/21/1 136/22/1 120/23/1 121/24/1
f 138/21/1 137/22/1 121/23/1 122/24/1
f 139/21/1 138/22/1 122/23/1 123/24/1
f 140/21/1 139/22/1 123/23/1 124/24/1
f 141/21/1 140/22/1 124/23/1 125/24/1
f 142/21/1 141/22/1 125/23/1 126/24/1
f 143/21/1 142/22/1 126/23/1 127/24/1
f 144/13/1 143/14/1 127/15/1 128/16/1
f 145/25/1 146/26/1 130/27/1 129/28/1
f 147/21/1 145/22/1 129/23/1 131/24/1
f 148/21/1 147/22/1 131/23/1 132/24/1
f 149/21/1 148/22/1 132/23/1 133/24/1
f 150/21/1 149/22/1 133/23/1 134/24/1
f 151/21/1 150/22/1 134/23/1 135/24/1
f 152/21/1 151/22/1 135/23/1 136/24/1
f 153/21/1 152/22/1 136/23/1 137/24/1
f 154/21/1 153/22/1 137/23/1 138/24/1
f 155/21/1 154/22/1 138/23/1 139/24/1
f 156/21/1 155/22/1 139/23/1 140/24/1
f 157/21/1 156/22/1 140/23/1 141/24/1
f 158/21/1 157/22/1 141/23/1 142/24/1
f 159/21/1 158/22/1 142/23/1 143/24/1
f 160/25/1 159/26/1 143/27/1 144/28/1
f 161/17/1 162/18/1 146/19/1 145/20/1
f 163/21/1 161/22/1 145/23/1 147/24/1
f 164/21/1 163/22/1 147/23/1 148/24/1
f 165/21/1 164/22/1 148/23/1 149/24/1
f 166/21/1 165/22/1 149/23/1 150/24/1
f 167/21/1 166/22/1 150/23/1 151/24/1
f 168/21/1 167/22/1 151/23/1 152/24/1
f 169/21/1 168/22/1 152/23/1 153/24/1
f 170/21/1 169/22/1 153/23/1 154/24/1
f 171/21/1 170/22/1 154/23/1 155/24/1
f 172/21/1 171/22/1 155/23/1 156/24/1
f 173/21/1 172/22/1 156/23/1 157/24/1
f 174/21/1 173/22/1 157/23/1 158/24/1
f 175/21/1 174/22/1 158/23/1 159/24/1
f 176/17/1 175/18/1 159/19/1 160/20/1
f 177/17/1 178/18/1 162/19/1 161/20/1
f 179/21/1 177/22/1 161/23/1 163/24/1
f 180/21/1 179/22/1 163/23/1 164/24/1
f 181/21/1 180/22/1 164/23/1 165/24/1
f 182/29/1 181/30/1 165/31/1 166/32/1
f 183/33/1 182/34/1 166/35/1 167/36/1
f 184/33/1 183/34/1 167/35/1 168/36/1
f 185/33/1 184/34/1 168/35/1 169/36/1
f 186/33/1 185/34/1 169/35/1 170/36/1
f 187/33/1 186/34/1 170/35/1 171/36/1
f 188/33/1 187/34/1 171/35/1 172/36/1
f 189/37/1 188/38/1 172/39/1 173/40/1
f 190/21/1 189/22/1 173/23/1 174/24/1
f 191/21/1 190/22/1 174/23/1 175/24/1
f 192/17/1 191/18/1 175/19/1 176/20/1
f 193/17/1 194/18/1 178/19/1 177/20/1
f 195/21/1 193/22/1 177/23/1 179/24/1
f 196/21/1 195/22/1 179/23/1 180/24/1
f 197/21/1 196/22/1 180/23/1 181/24/1
f 198/41/1 197/42/1 181/43/1 182/44/1
f 199/45/1 198/46/1 182/47/1 183/48/1
f 200/45/1 199/46/1 183/47/1 184/48/1
f 201/45/1 200/46/1 184/47/1 185/48/1
f 202/45/1 201/46/1 185/47/1 186/48/1
f 203/45/1 202/46/1 186/47/1 187/48/1
f 204/45/1 203/46/1 187/47/1 188/48/1
f 205/49/1 204/50/1 188/51/1 189/52/1
f 206/21/1 205/22/1 189/23/1 190/24/1
f 207/21/1 206/22/1 190/23/1 191/24/1
f 208/17/1 207/18/1 191/19/1 192/20/1
f 209/17/1 210/18/1 194/19/1 193/20/1
f 211/21/1 209/22/1 193/23/1 195/24/1
f 212/21/1 211/22/1 195/23/1 196/24/1
f 213/21/1 212/22/1 196/23/1 197/24/1
f 214/53/1 213/54/1 197/55/1 198/56/1
f 215/57/1 214/58/1 198/59/1 199/60/1
f 216/57/1 215/58/1 199/59/1 200/60/1
f 217/57/1 216/58/1 200/59/1 201/60/1
f 218/57/1 217/58/1 201/59/1 202/60/1
f 219/57/1 218/58/1 202/59/1 203/60/1
f 220/57/1 219/58/1 203/59/1 204/60/1
f 221/61/1 220/62/1 204/63/1 205/64/1
f 222/21/1 221/22/1 205/23/1 206/24/1
f 223/21/1 222/22/1 206/23/1 207/24/1
f 224/17/1 223/18/1 207/19/1 208/20/1
f 225/17/1 226/18/1 210/19/1 209/20/1
f 227/21/1 225/22/1 209/23/1 211/24/1
f 228/21/1 227/22/1 211/23/1 212/24/1
f 229/21/1 228/22/1 212/23/1 213/24/1
f 230/21/1 229/22/1 213/23/1 214/24/1
f 231/21/1 230/22/1 214/23/1 215/24/1
f 232/21/1 231/22/1 215/23/1 216/24/1
f 233/21/1 232/22/1 216/23/1 217/24/1
f 234/21/1 233/22/1 217/23/1 218/24/1
f 235/21/1 234/22/1 218/23/1 219/24/1
f 236/21/1 235/22/1 219/23/1 220/24/1
f 237/21/1 236/22/1 220/23/1 221/24/1
f 238/21/1 237/22/1 221/23/1 222/24/1
f 239/21/1 238/22/1 222/23/1 223/24/1
f 240/17/1 239/18/1 223/19/1 224/20/1
f 241/17/1 242/18/1 226/19/1 225/20/1
f 243/21/1 241/22/1 225/23/1 227/24/1
f 244/21/1 243/22/1 227/23/1 228/24/1
f 245/21/1 244/22/1 228/23/1 229/24/1
f 246/21/1 245/22/1 229/23/1 230/24/1
f 247/21/1 246/22/1 230/23/1 231/24/1
f 248/21/1 247/22/1 231/23/1 232/24/1
f 249/21/1 248/22/1 232/23/1 233/24/1
f 250/21/1 249/22/1 233/23/1 234/24/1
f 251/21/1 250/22/1 234/23/1 235/24/1
f 252/21/1 251/22/1 235/23/1 236/24/1
f 253/21/1 252/22/1 236/23/1 237/24/1
f 254/21/1 253/22/1 237/23/1 238/24/1
f 255/21/1 254/22/1 238/23/1 239/24/1
f 256/17/1 255/18/1 239/19/1 240/20/1

g mesh_0002
f 125/17/1 124/18/1 108/19/1 109/20/1
f 126/65/1 125/66/1 109/67/1 110/68/1
f 127/69/1 126/70/1 110/71/1 111/72/1
f 142/73/1 141/74/1 125/75/1 126/76/1
f 143/69/1 142/70/1 126/71/1 127/72/1
f 161/17/1 162/18/1 146/19/1 145/20/1
f 176/17/1 175/18/1 159/19/1 160/20/1
f 177/17/1 178/18/1 162/19/1 161/20/1
f 192/17/1 191/18/1 175/19/1 176/20/1
f 193/17/1 194/18/1 178/19/1 177/20/1
f 199/77/1 198/78/1 182/79/1 183/80/1
f 200/81/1 199/82/1 183/83/1 184/84/1
f 201/85/1 200/86/1 184/87/1 185/88/1
f 202/85/1 201/86/1 185/87/1 186/88/1
f 203/89/1 202/90/1 186/91/1 187/92/1
f 204/93/1 203/94/1 187/95/1 188/96/1
f 208/17/1 207/18/1 191/19/1 192/20/1
f 209/17/1 210/18/1 194/19/1 193/20/1
f 224/17/1 223/18/1 207/19/1 208/20/1
f 225/17/1 226/18/1 210/19/1 209/20/1
f 239/21/1 238/22/1 222/23/1 223/24/1
f 240/17/1 239/18/1 223/19/1 224/20/1
f 241/17/1 242/18/1 226/19/1 225/20/1
f 255/21/1 254/22/1 238/23/1 239/24/1
f 256/17/1 255/18/1 239/19/1 240/20/1

